<mxfile host="app.diagrams.net" agent="Mozilla/5.0 (Windows NT 10.0; Win64; x64) AppleWebKit/537.36 (KHTML, like Gecko) Chrome/128.0.0.0 Safari/537.36" version="24.7.7">
  <diagram name="第 1 页" id="X6RRzPpojBGHA621dQEi">
    <mxGraphModel dx="1877" dy="618" grid="1" gridSize="10" guides="1" tooltips="1" connect="1" arrows="1" fold="1" page="1" pageScale="1" pageWidth="827" pageHeight="1169" math="0" shadow="0">
      <root>
        <mxCell id="0" />
        <mxCell id="1" parent="0" />
        <mxCell id="D1xUKD-AIA9X70KtGpgF-1" value="行测" style="rounded=0;whiteSpace=wrap;html=1;" vertex="1" parent="1">
          <mxGeometry x="350" y="290" width="120" height="60" as="geometry" />
        </mxCell>
        <mxCell id="D1xUKD-AIA9X70KtGpgF-2" value="" style="endArrow=classic;html=1;rounded=0;exitX=0;exitY=0.5;exitDx=0;exitDy=0;" edge="1" parent="1" source="D1xUKD-AIA9X70KtGpgF-1">
          <mxGeometry width="50" height="50" relative="1" as="geometry">
            <mxPoint x="330" y="330" as="sourcePoint" />
            <mxPoint x="220" y="320" as="targetPoint" />
          </mxGeometry>
        </mxCell>
        <mxCell id="D1xUKD-AIA9X70KtGpgF-3" value="判断推理" style="rounded=0;whiteSpace=wrap;html=1;" vertex="1" parent="1">
          <mxGeometry x="100" y="290" width="120" height="60" as="geometry" />
        </mxCell>
        <mxCell id="D1xUKD-AIA9X70KtGpgF-5" value="图形推理" style="whiteSpace=wrap;html=1;rounded=1;arcSize=50;align=center;verticalAlign=middle;strokeWidth=1;autosize=1;spacing=4;treeFolding=1;treeMoving=1;newEdgeStyle={&quot;edgeStyle&quot;:&quot;entityRelationEdgeStyle&quot;,&quot;startArrow&quot;:&quot;none&quot;,&quot;endArrow&quot;:&quot;none&quot;,&quot;segment&quot;:10,&quot;curved&quot;:1,&quot;sourcePerimeterSpacing&quot;:0,&quot;targetPerimeterSpacing&quot;:0};" vertex="1" parent="1">
          <mxGeometry x="-125" y="210" width="90" height="30" as="geometry" />
        </mxCell>
        <mxCell id="D1xUKD-AIA9X70KtGpgF-6" value="" style="edgeStyle=entityRelationEdgeStyle;startArrow=none;endArrow=none;segment=10;curved=1;sourcePerimeterSpacing=0;targetPerimeterSpacing=0;rounded=0;exitX=0;exitY=0.25;exitDx=0;exitDy=0;" edge="1" target="D1xUKD-AIA9X70KtGpgF-5" parent="1" source="D1xUKD-AIA9X70KtGpgF-3">
          <mxGeometry relative="1" as="geometry">
            <mxPoint x="-310" y="162" as="sourcePoint" />
          </mxGeometry>
        </mxCell>
        <mxCell id="D1xUKD-AIA9X70KtGpgF-7" value="定义判断" style="whiteSpace=wrap;html=1;rounded=1;arcSize=50;align=center;verticalAlign=middle;strokeWidth=1;autosize=1;spacing=4;treeFolding=1;treeMoving=1;newEdgeStyle={&quot;edgeStyle&quot;:&quot;entityRelationEdgeStyle&quot;,&quot;startArrow&quot;:&quot;none&quot;,&quot;endArrow&quot;:&quot;none&quot;,&quot;segment&quot;:10,&quot;curved&quot;:1,&quot;sourcePerimeterSpacing&quot;:0,&quot;targetPerimeterSpacing&quot;:0};" vertex="1" parent="1">
          <mxGeometry x="-125" y="280" width="90" height="30" as="geometry" />
        </mxCell>
        <mxCell id="D1xUKD-AIA9X70KtGpgF-8" value="" style="edgeStyle=entityRelationEdgeStyle;startArrow=none;endArrow=none;segment=10;curved=1;sourcePerimeterSpacing=0;targetPerimeterSpacing=0;rounded=0;exitX=0;exitY=0.5;exitDx=0;exitDy=0;" edge="1" parent="1" target="D1xUKD-AIA9X70KtGpgF-7" source="D1xUKD-AIA9X70KtGpgF-3">
          <mxGeometry relative="1" as="geometry">
            <mxPoint y="380" as="sourcePoint" />
            <Array as="points">
              <mxPoint x="70" y="320" />
              <mxPoint x="50" y="330" />
            </Array>
          </mxGeometry>
        </mxCell>
        <mxCell id="D1xUKD-AIA9X70KtGpgF-9" value="类比推理" style="whiteSpace=wrap;html=1;rounded=1;arcSize=50;align=center;verticalAlign=middle;strokeWidth=1;autosize=1;spacing=4;treeFolding=1;treeMoving=1;newEdgeStyle={&quot;edgeStyle&quot;:&quot;entityRelationEdgeStyle&quot;,&quot;startArrow&quot;:&quot;none&quot;,&quot;endArrow&quot;:&quot;none&quot;,&quot;segment&quot;:10,&quot;curved&quot;:1,&quot;sourcePerimeterSpacing&quot;:0,&quot;targetPerimeterSpacing&quot;:0};" vertex="1" parent="1">
          <mxGeometry x="-125" y="350" width="90" height="30" as="geometry" />
        </mxCell>
        <mxCell id="D1xUKD-AIA9X70KtGpgF-10" value="逻辑判断" style="whiteSpace=wrap;html=1;rounded=1;arcSize=50;align=center;verticalAlign=middle;strokeWidth=1;autosize=1;spacing=4;treeFolding=1;treeMoving=1;newEdgeStyle={&quot;edgeStyle&quot;:&quot;entityRelationEdgeStyle&quot;,&quot;startArrow&quot;:&quot;none&quot;,&quot;endArrow&quot;:&quot;none&quot;,&quot;segment&quot;:10,&quot;curved&quot;:1,&quot;sourcePerimeterSpacing&quot;:0,&quot;targetPerimeterSpacing&quot;:0};" vertex="1" parent="1">
          <mxGeometry x="-125" y="420" width="90" height="30" as="geometry" />
        </mxCell>
        <mxCell id="D1xUKD-AIA9X70KtGpgF-11" value="" style="edgeStyle=entityRelationEdgeStyle;startArrow=none;endArrow=none;segment=10;curved=1;sourcePerimeterSpacing=0;targetPerimeterSpacing=0;rounded=0;exitX=0;exitY=0.75;exitDx=0;exitDy=0;entryX=1;entryY=0.5;entryDx=0;entryDy=0;" edge="1" parent="1" source="D1xUKD-AIA9X70KtGpgF-3" target="D1xUKD-AIA9X70KtGpgF-9">
          <mxGeometry relative="1" as="geometry">
            <mxPoint x="140" y="405" as="sourcePoint" />
            <mxPoint x="10" y="380" as="targetPoint" />
            <Array as="points">
              <mxPoint x="110" y="405" />
              <mxPoint x="90" y="415" />
              <mxPoint x="-20" y="370" />
            </Array>
          </mxGeometry>
        </mxCell>
        <mxCell id="D1xUKD-AIA9X70KtGpgF-12" value="" style="edgeStyle=entityRelationEdgeStyle;startArrow=none;endArrow=none;segment=10;curved=1;sourcePerimeterSpacing=0;targetPerimeterSpacing=0;rounded=0;exitX=0;exitY=0.75;exitDx=0;exitDy=0;entryX=1;entryY=0.5;entryDx=0;entryDy=0;" edge="1" parent="1" source="D1xUKD-AIA9X70KtGpgF-3" target="D1xUKD-AIA9X70KtGpgF-10">
          <mxGeometry relative="1" as="geometry">
            <mxPoint x="110" y="345" as="sourcePoint" />
            <mxPoint x="-10" y="375" as="targetPoint" />
            <Array as="points">
              <mxPoint x="120" y="415" />
              <mxPoint x="100" y="425" />
              <mxPoint x="-10" y="380" />
            </Array>
          </mxGeometry>
        </mxCell>
      </root>
    </mxGraphModel>
  </diagram>
</mxfile>
